<svg id="Layer_1" data-name="Layer 1" xmlns="http://www.w3.org/2000/svg" viewBox="0 0 615 392.01">
  <title>illustratorLogo</title>
  <g id="logo">
    <g id="the">
      <g id="Polygon_3" data-name="Polygon 3">
        <path d="M215.07,188H6.93L111,8Z" fill="#f5ad58"/>
        <path d="M111,16,13.87,184H208.13L111,16m0-16L222,192H0Z" fill="#f5ad58"/>
      </g>
      <g id="_the" data-name=" the" style="isolation: isolate">
        <g style="isolation: isolate">
          <path d="M80.55,120.82H75.41V116H90.49v4.86H85.38V148H80.55Z" fill="#301f09"/>
        </g>
        <g style="isolation: isolate">
          <path d="M105.14,120.85V148H95.48V83.93h9.66v27.2H116.8V83.93h9.67V148H116.8V120.85Z" fill="#301f09"/>
        </g>
        <g style="isolation: isolate">
          <path d="M131.45,148V115.94h13.76v4.86h-8.93v8.74h6.52v4.86h-6.52v8.74h8.93V148Z" fill="#301f09"/>
        </g>
      </g>
    </g>
    <g id="net">
      <g id="Polygon_2" data-name="Polygon 2">
        <path d="M504,192,615,384H393Z" fill="none"/>
        <path d="M504,208,406.87,376H601.13L504,208m0-16L615,384H393Z" fill="#f5ad58"/>
      </g>
      <g id="net-2" style="isolation: isolate">
        <g style="isolation: isolate">
          <path d="M526.07,269.62,506.75,290l23.33-13.47,3,5.24-34.71,20-3.24-5.61,18.07-20L491,289l-3-5.23,34.71-20Z" fill="#f5ad58"/>
          <path d="M501.09,306.51l34.71-20,8.6,14.89-5.26,3-5.58-9.66-9.46,5.47,4.07,7.05-5.26,3-4.07-7.06-9.47,5.47,5.58,9.66-5.26,3Z" fill="#f5ad58"/>
          <path d="M544.4,313.58,541.19,308l5.26-3,9.43,16.33-5.26,3-3.2-5.53-29.42,17-3-5.23Z" fill="#f5ad58"/>
        </g>
      </g>
    </g>
    <g id="art">
      <path id="Polygon_4" data-name="Polygon 4" d="M393,385,282,192H504Z" fill="#c48132"/>
      <g id="Art-2" style="isolation: isolate">
        <g style="isolation: isolate">
          <path d="M370.64,260.25v12.48h-4.06V284H352.51V253.91q0-8.74,4.77-13.57t13.39-4.84q8.32,0,12.31,4.38t4,13.54V284H372.89V254.36a8,8,0,0,0-.66-3.85,2.52,2.52,0,0,0-2.35-1.07q-3.3,0-3.3,4.92v5.89Z" fill="#301f09"/>
          <path d="M413.49,249.09V263a5.09,5.09,0,0,0-2.46-.77c-2.36,0-3.54,1.81-3.54,5.41V284h-13V265.11q0-7.5,4.09-12a14.08,14.08,0,0,1,10.92-4.45A25.86,25.86,0,0,1,413.49,249.09Z" fill="#301f09"/>
          <path d="M428.85,236.68v13.24h5.82v13.7h-5.82q0,4.13,1.3,5.68t4.76,1.56v13.63l-1.49,0a17.55,17.55,0,0,1-8.3-2,16.79,16.79,0,0,1-6.26-5.54q-3-4.47-3-11.86V236.68Z" fill="#301f09"/>
        </g>
      </g>
    </g>
    <g id="cyber">
      <g id="Polygon_1" data-name="Polygon 1">
        <path d="M222,192,333,384H111Z" fill="none"/>
        <path d="M222,208,124.87,376H319.13L222,208m0-16L333,384H111Z" fill="#f5ad58"/>
      </g>
      <g id="CYBER-2" style="isolation: isolate">
        <g style="isolation: isolate">
          <path d="M198.83,357.62a9.54,9.54,0,0,1-12.86,4.2l-19.48-9.92a9.57,9.57,0,1,1,8.69-17.06l4.07,2.08-2.84,5.58-4.19-2.13a3.47,3.47,0,0,0-4.68,1.52,3.29,3.29,0,0,0-.2,2.64,3.35,3.35,0,0,0,1.73,2l19.54,10a3.35,3.35,0,0,0,2.63.21,3.3,3.3,0,0,0,2-1.72,3.36,3.36,0,0,0,.22-2.65,3.3,3.3,0,0,0-1.71-2l-4.93-2.51,2.84-5.58,5,2.54a9.54,9.54,0,0,1,4.17,12.85Z" fill="#f5ad58"/>
          <path d="M192.47,332,168,328.66l3-5.93,14.85,2.55-10.8-10.49,3-6,17.07,17.81,14.95,7.62-2.74,5.38Z" fill="#f5ad58"/>
          <path d="M216,322.73l-35.71-18.19,4.1-8.06a11.56,11.56,0,0,1,4.61-4.9,8.77,8.77,0,0,1,6-.88,13.78,13.78,0,0,1,4,1.42,9.36,9.36,0,0,1,4.78,4.84,5.91,5.91,0,0,1,.44,2.58,7,7,0,0,1,4.26-1.66,11.65,11.65,0,0,1,4.15.57,16.59,16.59,0,0,1,2.58,1.06,13.44,13.44,0,0,1,5.1,4.22,8.54,8.54,0,0,1,1.53,4.32,8.7,8.7,0,0,1-.83,4.72Zm-18.17-16.57,1.14-2.25a3.71,3.71,0,0,0-.73-4.61,7.72,7.72,0,0,0-2.09-1.46,5.32,5.32,0,0,0-3.91-.63,3.82,3.82,0,0,0-2.38,2.05l-1.15,2.25Zm15.8,8,1.15-2.25a4.28,4.28,0,0,0-.89-5.22,7,7,0,0,0-2-1.51c-2-1-3.64-1.37-4.94-1.08a4.12,4.12,0,0,0-2.79,2.38L203,308.78Z" fill="#f5ad58"/>
          <path d="M227.64,300l-35.71-18.19,7.81-15.32,5.41,2.75-5.06,9.94,9.74,5,3.7-7.26,5.41,2.76-3.7,7.26,9.74,5,5.06-9.94,5.41,2.76Z" fill="#f5ad58"/>
          <path d="M206,254.26q2.29-4.5,5.84-5.34a10.12,10.12,0,0,1,7,1.22l5.19,2.64a9.39,9.39,0,0,1,4.94,6.14l17.61,4-3,5.82-15.1-3.59-.25.48-1.58,3.11,13.44,6.85-2.74,5.38-35.68-18.18Zm10.24,1.17q-3.1-1.59-4.67,1.49l-1.66,3.25L221.31,266l1.66-3.25a3.33,3.33,0,0,0,.2-2.64,3.44,3.44,0,0,0-1.74-2Z" fill="#f5ad58"/>
        </g>
      </g>
      <path id="Polygon_5" data-name="Polygon 5" d="M253.5,279,305,368H202Z" fill="#f5ad58"/>
    </g>
  </g>
</svg>
